<svg width="700" height="510" xmlns="http://www.w3.org/2000/svg">
 <g>
  <title>background</title>
  <rect x="-1" y="-1" width="702" height="512" id="canvas_background" fill="none"/>
 </g>

 <g>
  <title>Layer 1</title>
  <path stroke="#336e6a" d="m481.15845,377.60831l-39.31114,0c41.09801,-32.1 27.69648,-90.05833 -19.65557,-119.48333c-28.58992,-17.83334 -54.49953,-26.75 -72.36823,-54.39166l-1.78687,-3.56666l0,-20.50834c3.57374,0.89166 8.04091,0.89166 11.61465,0c12.50809,-1.78334 22.33587,-9.80834 26.80305,-20.50834c-3.57374,1.78334 -7.14748,2.675 -10.72122,3.56666c-19.65557,3.56666 -38.4177,-9.80834 -41.09801,-29.425c-0.89343,-7.13334 0,-14.26666 2.6803,-20.50834c-13.40152,7.13334 -21.44244,22.29166 -18.76213,37.45c1.78687,12.48334 9.82778,22.29166 20.549,26.75l0,23.18334l-2.6803,3.56666c-17.8687,26.75 -43.77831,36.55834 -72.36823,54.39166c-47.35205,29.425 -60.75358,87.38333 -19.65557,119.48333l-38.4177,0c-5.36061,0 -10.72122,4.45834 -10.72122,10.7l0,13.375l-55.39297,0c-5.36061,0 -10.72122,4.45834 -10.72122,10.7l0,19.61666l428.84881,0l0,-21.4c0,-5.35 -4.46717,-10.7 -10.72122,-10.7l-56.2864,0l0,-12.48334c0.89343,-5.35 -3.57374,-9.80834 -9.82778,-9.80834l-0.00003,0.00002zm-187.62135,-104.325c-41.09801,25.85834 -42.88488,66.875 -22.33587,86.49166l-19.65557,0c-21.44244,-19.61666 -18.76213,-60.63333 22.33587,-86.49166c20.549,-13.375 45.56518,-23.18334 65.22075,-43.69166l0,0l8.93435,0l0,0c1.78687,1.78334 3.57374,3.56666 5.36061,5.35c-19.65557,16.94166 -41.09801,25.85834 -59.86014,38.34166zm177.79357,-91.84166c49.13892,0 88.45007,-40.125 88.45007,-88.275s-39.31114,-89.16666 -88.45007,-89.16666s-89.34351,40.125 -89.34351,89.16666s40.20457,88.275 89.34351,88.275zm0,-164.95832c41.99144,0 76.83541,33.88334 76.83541,76.68333c0,41.90834 -33.95053,76.68333 -76.83541,76.68333c-41.99144,0 -76.83541,-33.88334 -76.83541,-76.68333c0,-42.8 33.95053,-76.68333 76.83541,-76.68333z" id="svg_1" stroke-opacity="0" fill="#336e6a"/>
  <path stroke="null" d="m471.0849,161.65359c36.26414,0 65.27545,-30.62523 65.27545,-68.90677c0,-38.28154 -29.01131,-68.90677 -65.27545,-68.90677c-36.26414,0.95704 -65.27545,31.58227 -65.27545,69.86382c0,37.3245 29.01131,67.94974 65.27545,67.94974l0,-0.00001zm-6.34622,-117.71574l12.69245,0l0,46.89489l32.63772,0l0,12.4415l-45.33017,0l0,-59.33639z" id="svg_2" fill="#dd5f56"/>
  <polygon stroke="null" points="150.1882781982422,106.96733856201172 163.68316650390625,95.48286437988281 178.0777130126953,106.96733856201172 172.67974853515625,88.7835922241211 187.0742950439453,78.25617218017578 169.08111572265625,78.25617218017578 163.68316650390625,61.02947998046875 158.2852020263672,78.25617218017578 141.19166564941406,78.25617218017578 155.5862274169922,88.7835922241211 " id="svg_3" fill="#dd5f56"/>
  <polygon stroke="null" points="228.2538299560547,204.15969848632812 242.64837646484375,193.6322784423828 256.14324951171875,204.15969848632812 250.7453155517578,186.93301391601562 265.139892578125,175.44854736328125 248.04632568359375,175.44854736328125 242.64837646484375,158.2218475341797 237.25042724609375,175.44854736328125 219.2572479248047,175.44854736328125 233.65179443359375,186.93301391601562 " id="svg_4" fill="#dd5f56"/>
  <polygon stroke="null" points="135.2158660888672,239.75885009765625 148.71075439453125,229.23141479492188 163.10528564453125,239.75885009765625 157.70733642578125,222.53213500976562 172.1018829345703,211.0476837158203 154.10870361328125,211.0476837158203 148.71075439453125,193.82098388671875 143.3127899169922,211.0476837158203 126.21926879882812,211.0476837158203 140.6138153076172,222.53213500976562 " id="svg_5" fill="#dd5f56"/>
  <polygon stroke="null" points="264.76678466796875,83.53239440917969 278.2616882324219,72.04794311523438 292.6562194824219,83.53239440917969 287.2582702636719,65.34867095947266 300.753173828125,54.82123947143555 283.6596374511719,54.82123947143555 278.2616882324219,37.59455108642578 272.8637390136719,54.82123947143555 255.77020263671875,54.82123947143555 270.1647033691406,65.34867095947266 " id="svg_6" fill="#dd5f56"/>
 </g>
</svg>